<svg width="35" height="35" viewBox="0 0 35 35" fill="none" xmlns="http://www.w3.org/2000/svg">
<path d="M2.91671 13.125H7.29171V30.625H2.91671C2.52993 30.625 2.159 30.4714 1.88551 30.1979C1.61202 29.9244 1.45837 29.5535 1.45837 29.1667V14.5834C1.45837 14.1966 1.61202 13.8257 1.88551 13.5522C2.159 13.2787 2.52993 13.125 2.91671 13.125ZM10.6357 11.2394L19.969 1.90608C20.093 1.78168 20.2578 1.70624 20.4331 1.69365C20.6083 1.68106 20.7822 1.73215 20.9228 1.83754L22.1667 2.77087C22.5122 3.03023 22.7731 3.38608 22.9167 3.79354C23.0602 4.201 23.0798 4.64184 22.9732 5.06046L21.2917 11.6667H30.625C31.3986 11.6667 32.1405 11.974 32.6874 12.521C33.2344 13.068 33.5417 13.8098 33.5417 14.5834V17.6517C33.5421 18.0329 33.4678 18.4104 33.323 18.763L28.8094 29.7223C28.6993 29.9895 28.5123 30.218 28.2721 30.3787C28.032 30.5394 27.7494 30.6252 27.4605 30.625H11.6667C11.2799 30.625 10.909 30.4714 10.6355 30.1979C10.362 29.9244 10.2084 29.5535 10.2084 29.1667V12.2705C10.2085 11.8837 10.3622 11.5128 10.6357 11.2394Z" fill="white"/>
</svg>
